<svg width="386" height="386" viewBox="0 0 386 386" fill="none" xmlns="http://www.w3.org/2000/svg">
<path d="M0 192.651C0 298.966 86.1852 385.151 192.5 385.151C298.815 385.151 385 298.966 385 192.651C385 86.3366 298.815 0.151367 192.5 0.151367C86.1852 0.151367 0 86.3366 0 192.651Z" fill="url(#paint0_radial_1596_2)"/>
<path fill-rule="evenodd" clip-rule="evenodd" d="M177.368 88.8486C178.412 88.8486 179.257 89.7043 179.257 90.7569C179.257 95.9492 179.257 110.303 179.257 115.495C179.257 116.55 178.412 117.404 177.368 117.404C171.406 117.404 153.028 117.404 147.065 117.404C146.022 117.404 145.177 116.55 145.177 115.495C145.177 110.303 145.177 95.9492 145.177 90.7569C145.177 89.7043 146.022 88.8486 147.065 88.8486C153.028 88.8486 171.406 88.8486 177.368 88.8486ZM236.727 88.8486C237.773 88.8486 238.618 89.7043 238.618 90.7569C238.618 95.9492 238.618 110.303 238.618 115.495C238.618 116.55 237.773 117.404 236.727 117.404C230.77 117.404 212.389 117.404 206.427 117.404C205.385 117.404 204.54 116.55 204.54 115.495C204.54 110.303 204.54 95.9492 204.54 90.7569C204.54 89.7043 205.385 88.8486 206.427 88.8486C212.389 88.8486 230.77 88.8486 236.727 88.8486ZM145.177 166.15H123.448V187.433C123.448 187.938 123.25 188.425 122.895 188.783C122.541 189.14 122.061 189.34 121.56 189.34C115.539 189.34 96.8491 189.34 90.8288 189.34C90.3279 189.34 89.8476 189.14 89.4937 188.783C89.1397 188.425 88.9404 187.938 88.9404 187.433V166.581C88.9404 157.34 92.5757 148.477 99.0479 141.939C105.519 135.404 114.296 131.733 123.448 131.733H261.744V113.986C261.744 112.933 262.589 112.08 263.631 112.08C269.654 112.08 288.344 112.08 294.366 112.08C295.409 112.08 296.254 112.933 296.254 113.986C296.254 117.12 296.254 123.768 296.254 131.302C296.254 140.546 292.618 149.409 286.147 155.944C279.674 162.479 270.899 166.15 261.747 166.15H238.618V284.257C238.618 285.057 238.128 285.768 237.386 286.044C233.206 287.605 219.397 292.754 211.07 295.857C209.584 296.415 207.916 296.198 206.617 295.283C205.316 294.364 204.54 292.864 204.54 291.259V166.15H179.257V284.257C179.257 285.057 178.764 285.768 178.023 286.044C173.844 287.605 160.034 292.754 151.71 295.857C150.221 296.415 148.557 296.198 147.255 295.283C145.952 294.364 145.177 292.864 145.177 291.259V166.15Z" fill="#F2B65F"/>
<path fill-rule="evenodd" clip-rule="evenodd" d="M192.597 28.5703C283.073 28.5703 356.532 102.025 356.532 192.505C356.532 282.983 283.073 356.44 192.597 356.44C102.118 356.44 28.6607 282.983 28.6607 192.505C28.6607 102.025 102.118 28.5703 192.597 28.5703ZM192.597 0C298.844 0 385.102 86.2595 385.102 192.505C385.102 298.751 298.844 385.01 192.597 385.01C86.3505 385.01 0.0917969 298.751 0.0917969 192.505C0.0917969 86.2595 86.3505 0 192.597 0Z" fill="#F2B65F"/>
<defs>
<radialGradient id="paint0_radial_1596_2" cx="0" cy="0" r="1" gradientUnits="userSpaceOnUse" gradientTransform="translate(192.5 192.651) scale(209.183)">
<stop stop-color="#3A2762"/>
<stop offset="0.125" stop-color="#392761"/>
<stop offset="0.179688" stop-color="#392760"/>
<stop offset="0.230469" stop-color="#382760"/>
<stop offset="0.253906" stop-color="#38265F"/>
<stop offset="0.273438" stop-color="#37265F"/>
<stop offset="0.292969" stop-color="#37265E"/>
<stop offset="0.3125" stop-color="#36265D"/>
<stop offset="0.332031" stop-color="#36265D"/>
<stop offset="0.351562" stop-color="#35265C"/>
<stop offset="0.371094" stop-color="#35265C"/>
<stop offset="0.390625" stop-color="#34265B"/>
<stop offset="0.40625" stop-color="#34255A"/>
<stop offset="0.421875" stop-color="#33255A"/>
<stop offset="0.4375" stop-color="#332559"/>
<stop offset="0.453125" stop-color="#322558"/>
<stop offset="0.46875" stop-color="#322558"/>
<stop offset="0.484375" stop-color="#312557"/>
<stop offset="0.5" stop-color="#302556"/>
<stop offset="0.515625" stop-color="#302455"/>
<stop offset="0.527344" stop-color="#2F2455"/>
<stop offset="0.539062" stop-color="#2F2454"/>
<stop offset="0.550781" stop-color="#2E2453"/>
<stop offset="0.5625" stop-color="#2E2453"/>
<stop offset="0.574219" stop-color="#2D2452"/>
<stop offset="0.585938" stop-color="#2D2451"/>
<stop offset="0.597656" stop-color="#2C2451"/>
<stop offset="0.609375" stop-color="#2C2350"/>
<stop offset="0.621094" stop-color="#2B234F"/>
<stop offset="0.632812" stop-color="#2A234F"/>
<stop offset="0.640625" stop-color="#2A234E"/>
<stop offset="0.648438" stop-color="#2A234D"/>
<stop offset="0.65625" stop-color="#29234D"/>
<stop offset="0.664062" stop-color="#29234C"/>
<stop offset="0.671875" stop-color="#28234C"/>
<stop offset="0.679688" stop-color="#28224B"/>
<stop offset="0.6875" stop-color="#27224B"/>
<stop offset="0.695312" stop-color="#27224A"/>
<stop offset="0.703125" stop-color="#27224A"/>
<stop offset="0.710938" stop-color="#262249"/>
<stop offset="0.71875" stop-color="#262248"/>
<stop offset="0.726562" stop-color="#252248"/>
<stop offset="0.734375" stop-color="#252247"/>
<stop offset="0.742188" stop-color="#242247"/>
<stop offset="0.75" stop-color="#242146"/>
<stop offset="0.757812" stop-color="#232145"/>
<stop offset="0.769531" stop-color="#222144"/>
<stop offset="0.78125" stop-color="#212143"/>
<stop offset="0.792969" stop-color="#212142"/>
<stop offset="0.804688" stop-color="#202142"/>
<stop offset="0.808594" stop-color="#202041"/>
<stop offset="0.8125" stop-color="#202041"/>
<stop offset="0.816406" stop-color="#1F2041"/>
<stop offset="0.824219" stop-color="#1F2040"/>
<stop offset="0.832031" stop-color="#1E203F"/>
<stop offset="1" stop-color="#1E203F"/>
</radialGradient>
</defs>
</svg>
