<svg width="208" height="208" viewBox="0 0 208 208" fill="none" xmlns="http://www.w3.org/2000/svg">
<path fill-rule="evenodd" clip-rule="evenodd" d="M88.4278 0C89.4711 0 90.3162 0.855679 90.3162 1.90823C90.3162 7.1006 90.3162 21.4547 90.3162 26.6459C90.3162 27.7018 89.4711 28.5553 88.4278 28.5553C82.4653 28.5553 64.0875 28.5553 58.1249 28.5553C57.0816 28.5553 56.2365 27.7018 56.2365 26.6459C56.2365 21.4547 56.2365 7.1006 56.2365 1.90823C56.2365 0.855679 57.0816 0 58.1249 0C64.0875 0 82.4653 0 88.4278 0ZM147.787 0C148.832 0 149.677 0.855679 149.677 1.90823C149.677 7.1006 149.677 21.4547 149.677 26.6459C149.677 27.7018 148.832 28.5553 147.787 28.5553C141.83 28.5553 123.449 28.5553 117.487 28.5553C116.445 28.5553 115.6 27.7018 115.6 26.6459C115.6 21.4547 115.6 7.1006 115.6 1.90823C115.6 0.855679 116.445 0 117.487 0C123.449 0 141.83 0 147.787 0ZM56.2365 77.3015H34.5077V98.5846C34.5077 99.0894 34.3095 99.5766 33.9545 99.9341C33.6005 100.292 33.1203 100.492 32.6193 100.492C26.599 100.492 7.9087 100.492 1.88842 100.492C1.38745 100.492 0.907181 100.292 0.553239 99.9341C0.199297 99.5766 0 99.0894 0 98.5846V77.7326C0 68.4917 3.63526 59.6281 10.1075 53.0906C16.5787 46.5553 25.3553 42.884 34.5077 42.884H172.803V25.1369C172.803 24.0844 173.648 23.2309 174.691 23.2309C180.713 23.2309 199.403 23.2309 205.426 23.2309C206.468 23.2309 207.313 24.0844 207.313 25.1369C207.313 28.2715 207.313 34.919 207.313 42.4529C207.313 51.6971 203.678 60.5607 197.207 67.0949C190.733 73.6302 181.959 77.3015 172.807 77.3015H149.677V195.408C149.677 196.208 149.187 196.919 148.446 197.196C144.266 198.756 130.457 203.906 122.13 207.008C120.643 207.566 118.976 207.349 117.677 206.434C116.375 205.516 115.6 204.016 115.6 202.41V77.3015H90.3162V195.408C90.3162 196.208 89.824 196.919 89.0823 197.196C84.9036 198.756 71.0934 203.906 62.7697 207.008C61.281 207.566 59.6169 207.349 58.3144 206.434C57.0119 205.516 56.2365 204.016 56.2365 202.41V77.3015Z" fill="#F2B65F"/>
</svg>
